<svg width="30" height="20" viewBox="0 0 30 20" fill="none" xmlns="http://www.w3.org/2000/svg">
<path d="M1 10.5C0.723858 10.5 0.5 10.7239 0.5 11C0.5 11.2761 0.723858 11.5 1 11.5V10.5ZM29.3536 11.3536C29.5488 11.1583 29.5488 10.8417 29.3536 10.6464L26.1716 7.46447C25.9763 7.2692 25.6597 7.2692 25.4645 7.46447C25.2692 7.65973 25.2692 7.97631 25.4645 8.17157L28.2929 11L25.4645 13.8284C25.2692 14.0237 25.2692 14.3403 25.4645 14.5355C25.6597 14.7308 25.9763 14.7308 26.1716 14.5355L29.3536 11.3536ZM1 11.5H29V10.5H1V11.5Z" fill="#00AAAA"/>
</svg>
