<svg width="15" height="22" viewBox="0 0 15 22" fill="none" xmlns="http://www.w3.org/2000/svg">
<path d="M10.75 7.48646C10.75 9.27765 9.29493 10.7297 7.5 10.7297C5.70507 10.7297 4.25 9.27765 4.25 7.48646C4.25 5.69527 5.70507 4.24323 7.5 4.24323C9.29493 4.24323 10.75 5.69527 10.75 7.48646Z" fill="#1A1A1A"/>
<path d="M7.4999 21L7.06251 21.2423C7.1506 21.4013 7.31808 21.5 7.49989 21.5C7.68171 21.5 7.84919 21.4013 7.93729 21.2423L7.4999 21ZM1.58938 10.1892L2.04364 9.98023L1.58938 10.1892ZM10.25 7.48646C10.25 9.00052 9.01977 10.2297 7.5 10.2297V11.2297C9.57008 11.2297 11.25 9.55477 11.25 7.48646H10.25ZM7.5 10.2297C5.98023 10.2297 4.75 9.00052 4.75 7.48646H3.75C3.75 9.55477 5.42992 11.2297 7.5 11.2297V10.2297ZM4.75 7.48646C4.75 5.9724 5.98023 4.74323 7.5 4.74323V3.74323C5.42992 3.74323 3.75 5.41815 3.75 7.48646H4.75ZM7.5 4.74323C9.01977 4.74323 10.25 5.9724 10.25 7.48646H11.25C11.25 5.41815 9.57008 3.74323 7.5 3.74323V4.74323ZM1.5 7.48646C1.5 4.18121 4.18531 1.5 7.5 1.5V0.5C3.63499 0.5 0.5 3.62696 0.5 7.48646H1.5ZM7.5 1.5C10.8147 1.5 13.5 4.18121 13.5 7.48646H14.5C14.5 3.62696 11.365 0.5 7.5 0.5V1.5ZM7.4999 21C7.93729 21.2423 7.93731 21.2422 7.93735 21.2421C7.93739 21.2421 7.93746 21.242 7.93754 21.2418C7.93771 21.2415 7.93796 21.241 7.9383 21.2404C7.93897 21.2392 7.93998 21.2374 7.94131 21.235C7.94397 21.2302 7.94795 21.223 7.95319 21.2135C7.96368 21.1946 7.97924 21.1665 7.99956 21.1298C8.04018 21.0564 8.09982 20.9487 8.17584 20.8113C8.32789 20.5365 8.54552 20.1431 8.80786 19.6683C9.33251 18.7189 10.036 17.4444 10.7514 16.1441C12.1734 13.5595 13.6658 10.831 13.8649 10.3981L12.9564 9.98023C12.7771 10.37 11.3141 13.047 9.87528 15.6621C9.16029 16.9617 8.45709 18.2356 7.93261 19.1847C7.67038 19.6592 7.45284 20.0525 7.30086 20.3271C7.22488 20.4645 7.16528 20.5721 7.12469 20.6454C7.10439 20.6821 7.08884 20.7102 7.07837 20.7291C7.07313 20.7386 7.06917 20.7457 7.06651 20.7505C7.06518 20.7529 7.06418 20.7547 7.06351 20.7559C7.06318 20.7565 7.06293 20.757 7.06276 20.7573C7.06268 20.7574 7.06261 20.7575 7.06257 20.7576C7.06253 20.7577 7.06251 20.7577 7.4999 21ZM7.4999 21C7.93729 20.7577 7.93727 20.7577 7.93723 20.7576C7.93719 20.7576 7.93712 20.7574 7.93704 20.7573C7.93687 20.757 7.93662 20.7565 7.93629 20.7559C7.93562 20.7547 7.93462 20.7529 7.93329 20.7505C7.93063 20.7457 7.92667 20.7386 7.92143 20.7291C7.91096 20.7102 7.89541 20.6821 7.87512 20.6455C7.83452 20.5721 7.77493 20.4645 7.69894 20.3271C7.54697 20.0525 7.32944 19.6592 7.06722 19.1847C6.54276 18.2356 5.83958 16.9617 5.12462 15.6621C3.68589 13.047 2.22292 10.37 2.04364 9.98023L1.13512 10.3981C1.33424 10.831 2.82653 13.5595 4.24846 16.1441C4.96383 17.4444 5.66733 18.7189 6.19197 19.6683C6.45429 20.143 6.67191 20.5365 6.82396 20.8113C6.89998 20.9487 6.95961 21.0564 7.00024 21.1298C7.02055 21.1665 7.03612 21.1946 7.0466 21.2135C7.05185 21.223 7.05582 21.2302 7.05848 21.235C7.05982 21.2374 7.06082 21.2392 7.06149 21.2404C7.06183 21.241 7.06208 21.2415 7.06225 21.2418C7.06234 21.2419 7.0624 21.2421 7.06244 21.2421C7.06249 21.2422 7.06251 21.2423 7.4999 21ZM13.5 7.48646C13.5 8.37742 13.3053 9.22165 12.9564 9.98023L13.8649 10.3981C14.2728 9.51114 14.5 8.52461 14.5 7.48646H13.5ZM2.04364 9.98023C1.69475 9.22165 1.5 8.37742 1.5 7.48646H0.5C0.5 8.52461 0.727197 9.51114 1.13512 10.3981L2.04364 9.98023Z" fill="#1A1A1A"/>
</svg>
